<svg width="502" height="189" viewBox="0 0 502 189" fill="none" xmlns="http://www.w3.org/2000/svg">
<line y1="-1" x2="64.6259" y2="1.30463" transform="matrix(0.938077 -0.346428 0.348203 0.937419 46.8726 28.619)" stroke="#64FFDA" stroke-width="2"/>
<path d="M103.894 3.37542L167.616 26.4996" stroke="#64FFDA" stroke-width="2"/>
<line x1="45.562" y1="24.6613" x2="45.562" y2="100.687" stroke="#64FFDA" stroke-width="2"/>
<path d="M167.02 24.6613V100.687" stroke="#64FFDA" stroke-width="2"/>
<line y1="-1" x2="81.8506" y2="-1" transform="matrix(0.761443 0.648232 -0.648701 0.761043 44.562 100.687)" stroke="#64FFDA" stroke-width="2"/>
<line y1="-1" x2="81.8493" y2="-1" transform="matrix(0.758567 -0.651595 0.653772 0.756691 106.946 154.02)" stroke="#64FFDA" stroke-width="2"/>
<path d="M91.8361 69.4362V71.4842H73.4681V69.9802L80.4441 61.0842H75.4841V59.1002H81.9801L88.2201 51.1322H73.5641V49.0842H91.3561V50.5562L84.6681 59.1322H89.3081V61.1162H83.1321L76.6361 69.4362H91.8361ZM115.392 49.0842V71.4842H113.056V61.1482H99.0404V71.4842H96.6724V49.0842H99.0404V59.0682H113.056V49.0842H115.392ZM131.088 49.0842C133.946 49.0842 136.186 49.7669 137.808 51.1322C139.429 52.4975 140.24 54.3749 140.24 56.7642C140.24 59.1535 139.429 61.0309 137.808 62.3962C136.186 63.7402 133.946 64.4122 131.088 64.4122H125.072V71.4842H122.704V49.0842H131.088ZM131.024 62.3322C133.242 62.3322 134.938 61.8522 136.112 60.8922C137.285 59.9109 137.872 58.5349 137.872 56.7642C137.872 54.9509 137.285 53.5642 136.112 52.6042C134.938 51.6229 133.242 51.1322 131.024 51.1322H125.072V62.3322H131.024Z" fill="#64FFDA"/>
<path d="M104.636 81.6805L109.304 98.3954H124.413L112.19 108.726L116.859 125.441L104.636 115.11L92.4128 125.441L97.0815 108.726L84.8587 98.3954H99.967L104.636 81.6805Z" fill="#64FFDA"/>
<path d="M16.2694 169.16L4.49338 173.8L16.2694 178.44V180.424L2.34938 174.856V172.744L16.2694 167.144V169.16ZM33.5556 183.112V185H19.8596V183.496L30.4516 170.088H20.0516V168.168H33.3636V169.672L22.7716 183.112H33.5556ZM43.9154 168.04C46.1127 168.04 47.798 168.595 48.9714 169.704C50.1447 170.792 50.7314 172.413 50.7314 174.568V185H48.5554V182.376C48.0434 183.251 47.286 183.933 46.2834 184.424C45.302 184.915 44.1287 185.16 42.7634 185.16C40.886 185.16 39.3927 184.712 38.2834 183.816C37.174 182.92 36.6194 181.736 36.6194 180.264C36.6194 178.835 37.1314 177.683 38.1554 176.808C39.2007 175.933 40.854 175.496 43.1154 175.496H48.4594V174.472C48.4594 173.021 48.054 171.923 47.2434 171.176C46.4327 170.408 45.2487 170.024 43.6914 170.024C42.6247 170.024 41.6007 170.205 40.6194 170.568C39.638 170.909 38.7954 171.389 38.0914 172.008L37.0674 170.312C37.9207 169.587 38.9447 169.032 40.1394 168.648C41.334 168.243 42.5927 168.04 43.9154 168.04ZM43.1154 183.368C44.3954 183.368 45.494 183.08 46.4114 182.504C47.3287 181.907 48.0114 181.053 48.4594 179.944V177.192H43.1794C40.2994 177.192 38.8594 178.195 38.8594 180.2C38.8594 181.181 39.2327 181.96 39.9794 182.536C40.726 183.091 41.7714 183.368 43.1154 183.368ZM65.4784 168.04C67.5904 168.04 69.265 168.659 70.5024 169.896C71.761 171.112 72.3904 172.893 72.3904 175.24V185H70.1184V175.464C70.1184 173.715 69.681 172.381 68.8064 171.464C67.9317 170.547 66.6837 170.088 65.0624 170.088C63.249 170.088 61.809 170.632 60.7424 171.72C59.697 172.787 59.1744 174.269 59.1744 176.168V185H56.9024V161.256H59.1744V171.112C59.793 170.131 60.6464 169.373 61.7344 168.84C62.8224 168.307 64.0704 168.04 65.4784 168.04ZM78.5586 168.168H80.8306V185H78.5586V168.168ZM79.7106 164.488C79.2413 164.488 78.8466 164.328 78.5266 164.008C78.2066 163.688 78.0466 163.304 78.0466 162.856C78.0466 162.429 78.2066 162.056 78.5266 161.736C78.8466 161.416 79.2413 161.256 79.7106 161.256C80.18 161.256 80.5746 161.416 80.8946 161.736C81.2146 162.035 81.3746 162.397 81.3746 162.824C81.3746 163.293 81.2146 163.688 80.8946 164.008C80.5746 164.328 80.18 164.488 79.7106 164.488ZM102.512 161.256V185H100.336V181.672C99.6537 182.803 98.747 183.667 97.6164 184.264C96.507 184.861 95.2484 185.16 93.8404 185.16C92.2617 185.16 90.8324 184.797 89.5524 184.072C88.2724 183.347 87.2697 182.333 86.5444 181.032C85.819 179.731 85.4564 178.248 85.4564 176.584C85.4564 174.92 85.819 173.437 86.5444 172.136C87.2697 170.835 88.2724 169.832 89.5524 169.128C90.8324 168.403 92.2617 168.04 93.8404 168.04C95.2057 168.04 96.4324 168.328 97.5204 168.904C98.6297 169.459 99.5364 170.28 100.24 171.368V161.256H102.512ZM94.0324 183.144C95.2057 183.144 96.2617 182.877 97.2004 182.344C98.1604 181.789 98.907 181.011 99.4404 180.008C99.995 179.005 100.272 177.864 100.272 176.584C100.272 175.304 99.995 174.163 99.4404 173.16C98.907 172.157 98.1604 171.389 97.2004 170.856C96.2617 170.301 95.2057 170.024 94.0324 170.024C92.8377 170.024 91.7604 170.301 90.8004 170.856C89.8617 171.389 89.115 172.157 88.5604 173.16C88.027 174.163 87.7604 175.304 87.7604 176.584C87.7604 177.864 88.027 179.005 88.5604 180.008C89.115 181.011 89.8617 181.789 90.8004 182.344C91.7604 182.877 92.8377 183.144 94.0324 183.144ZM117.416 168.04C119.528 168.04 121.203 168.659 122.44 169.896C123.699 171.112 124.328 172.893 124.328 175.24V185H122.056V175.464C122.056 173.715 121.619 172.381 120.744 171.464C119.869 170.547 118.621 170.088 117 170.088C115.187 170.088 113.747 170.632 112.68 171.72C111.635 172.787 111.112 174.269 111.112 176.168V185H108.84V161.256H111.112V171.112C111.731 170.131 112.584 169.373 113.672 168.84C114.76 168.307 116.008 168.04 117.416 168.04ZM136.384 168.04C138.581 168.04 140.267 168.595 141.44 169.704C142.613 170.792 143.2 172.413 143.2 174.568V185H141.024V182.376C140.512 183.251 139.755 183.933 138.752 184.424C137.771 184.915 136.597 185.16 135.232 185.16C133.355 185.16 131.861 184.712 130.752 183.816C129.643 182.92 129.088 181.736 129.088 180.264C129.088 178.835 129.6 177.683 130.624 176.808C131.669 175.933 133.323 175.496 135.584 175.496H140.928V174.472C140.928 173.021 140.523 171.923 139.712 171.176C138.901 170.408 137.717 170.024 136.16 170.024C135.093 170.024 134.069 170.205 133.088 170.568C132.107 170.909 131.264 171.389 130.56 172.008L129.536 170.312C130.389 169.587 131.413 169.032 132.608 168.648C133.803 168.243 135.061 168.04 136.384 168.04ZM135.584 183.368C136.864 183.368 137.963 183.08 138.88 182.504C139.797 181.907 140.48 181.053 140.928 179.944V177.192H135.648C132.768 177.192 131.328 178.195 131.328 180.2C131.328 181.181 131.701 181.96 132.448 182.536C133.195 183.091 134.24 183.368 135.584 183.368ZM153.883 185.16C152.518 185.16 151.206 184.968 149.947 184.584C148.71 184.179 147.739 183.677 147.035 183.08L148.059 181.288C148.763 181.843 149.648 182.301 150.715 182.664C151.782 183.005 152.891 183.176 154.043 183.176C155.579 183.176 156.71 182.941 157.435 182.472C158.182 181.981 158.555 181.299 158.555 180.424C158.555 179.805 158.352 179.325 157.947 178.984C157.542 178.621 157.03 178.355 156.411 178.184C155.792 177.992 154.971 177.811 153.947 177.64C152.582 177.384 151.483 177.128 150.651 176.872C149.819 176.595 149.104 176.136 148.507 175.496C147.931 174.856 147.643 173.971 147.643 172.84C147.643 171.432 148.23 170.28 149.403 169.384C150.576 168.488 152.208 168.04 154.299 168.04C155.387 168.04 156.475 168.189 157.563 168.488C158.651 168.765 159.547 169.139 160.251 169.608L159.259 171.432C157.872 170.472 156.219 169.992 154.299 169.992C152.848 169.992 151.75 170.248 151.003 170.76C150.278 171.272 149.915 171.944 149.915 172.776C149.915 173.416 150.118 173.928 150.523 174.312C150.95 174.696 151.472 174.984 152.091 175.176C152.71 175.347 153.563 175.528 154.651 175.72C155.995 175.976 157.072 176.232 157.883 176.488C158.694 176.744 159.387 177.181 159.963 177.8C160.539 178.419 160.827 179.272 160.827 180.36C160.827 181.832 160.208 183.005 158.971 183.88C157.755 184.733 156.059 185.16 153.883 185.16ZM170.915 168.04C173.113 168.04 174.798 168.595 175.971 169.704C177.145 170.792 177.731 172.413 177.731 174.568V185H175.555V182.376C175.043 183.251 174.286 183.933 173.283 184.424C172.302 184.915 171.129 185.16 169.763 185.16C167.886 185.16 166.393 184.712 165.283 183.816C164.174 182.92 163.619 181.736 163.619 180.264C163.619 178.835 164.131 177.683 165.155 176.808C166.201 175.933 167.854 175.496 170.115 175.496H175.459V174.472C175.459 173.021 175.054 171.923 174.243 171.176C173.433 170.408 172.249 170.024 170.691 170.024C169.625 170.024 168.601 170.205 167.619 170.568C166.638 170.909 165.795 171.389 165.091 172.008L164.067 170.312C164.921 169.587 165.945 169.032 167.139 168.648C168.334 168.243 169.593 168.04 170.915 168.04ZM170.115 183.368C171.395 183.368 172.494 183.08 173.411 182.504C174.329 181.907 175.011 181.053 175.459 179.944V177.192H170.179C167.299 177.192 165.859 178.195 165.859 180.2C165.859 181.181 166.233 181.96 166.979 182.536C167.726 183.091 168.771 183.368 170.115 183.368ZM192.478 168.04C194.59 168.04 196.265 168.659 197.502 169.896C198.761 171.112 199.39 172.893 199.39 175.24V185H197.118V175.464C197.118 173.715 196.681 172.381 195.806 171.464C194.932 170.547 193.684 170.088 192.062 170.088C190.249 170.088 188.809 170.632 187.742 171.72C186.697 172.787 186.174 174.269 186.174 176.168V185H183.902V168.168H186.078V171.272C186.697 170.248 187.55 169.459 188.638 168.904C189.748 168.328 191.028 168.04 192.478 168.04ZM220.526 158.056H222.606L212.046 188.2H209.966L220.526 158.056ZM237.644 172.744V174.856L223.724 180.424V178.44L235.5 173.8L223.724 169.16V167.144L237.644 172.744Z" fill="#64FFDA"/>
</svg>
