<svg width="521" height="204" viewBox="0 0 521 204" fill="none" xmlns="http://www.w3.org/2000/svg">
<line y1="-1" x2="75.1461" y2="2.00389" transform="matrix(0.918849 -0.394608 0.304267 0.952587 2.63159 37.9059)" stroke="#64FFDA" stroke-width="2"/>
<path d="M67.5763 4.47073L140.153 35.0988" stroke="#64FFDA" stroke-width="2"/>
<line x1="1" y1="32.6639" x2="1" y2="133.361" stroke="#64FFDA" stroke-width="2"/>
<path d="M139.474 32.6639V133.361" stroke="#64FFDA" stroke-width="2"/>
<line y1="-1" x2="99.8704" y2="-1" transform="matrix(0.711449 0.702738 -0.592051 0.8059 0 133.361)" stroke="#64FFDA" stroke-width="2"/>
<line y1="-1" x2="99.9529" y2="-1" transform="matrix(0.707488 -0.706725 0.596373 0.802708 71.0526 204)" stroke="#64FFDA" stroke-width="2"/>
<path d="M55.9425 88.9244V90.9724H37.5745V89.4684L44.5505 80.5724H39.5905V78.5884H46.0865L52.3265 70.6204H37.6705V68.5724H55.4625V70.0444L48.7745 78.6204H53.4145V80.6044H47.2385L40.7425 88.9244H55.9425ZM79.4988 68.5724V90.9724H77.1628V80.6364H63.1468V90.9724H60.7788V68.5724H63.1468V78.5564H77.1628V68.5724H79.4988ZM95.194 68.5724C98.0527 68.5724 100.293 69.2551 101.914 70.6204C103.535 71.9857 104.346 73.8631 104.346 76.2524C104.346 78.6417 103.535 80.5191 101.914 81.8844C100.293 83.2284 98.0527 83.9004 95.194 83.9004H89.178V90.9724H86.81V68.5724H95.194ZM95.13 81.8204C97.3487 81.8204 99.0447 81.3404 100.218 80.3804C101.391 79.3991 101.978 78.0231 101.978 76.2524C101.978 74.4391 101.391 73.0524 100.218 72.0924C99.0447 71.1111 97.3487 70.6204 95.13 70.6204H89.178V81.8204H95.13Z" fill="#64FFDA"/>
<path d="M176.269 75.16L164.493 79.8L176.269 84.44V86.424L162.349 80.856V78.744L176.269 73.144V75.16ZM193.556 89.112V91H179.86V89.496L190.452 76.088H180.052V74.168H193.364V75.672L182.772 89.112H193.556ZM203.915 74.04C206.113 74.04 207.798 74.5947 208.971 75.704C210.145 76.792 210.731 78.4133 210.731 80.568V91H208.555V88.376C208.043 89.2507 207.286 89.9333 206.283 90.424C205.302 90.9147 204.129 91.16 202.763 91.16C200.886 91.16 199.393 90.712 198.283 89.816C197.174 88.92 196.619 87.736 196.619 86.264C196.619 84.8347 197.131 83.6827 198.155 82.808C199.201 81.9333 200.854 81.496 203.115 81.496H208.459V80.472C208.459 79.0213 208.054 77.9227 207.243 77.176C206.433 76.408 205.249 76.024 203.691 76.024C202.625 76.024 201.601 76.2053 200.619 76.568C199.638 76.9093 198.795 77.3893 198.091 78.008L197.067 76.312C197.921 75.5867 198.945 75.032 200.139 74.648C201.334 74.2427 202.593 74.04 203.915 74.04ZM203.115 89.368C204.395 89.368 205.494 89.08 206.411 88.504C207.329 87.9067 208.011 87.0533 208.459 85.944V83.192H203.179C200.299 83.192 198.859 84.1947 198.859 86.2C198.859 87.1813 199.233 87.96 199.979 88.536C200.726 89.0907 201.771 89.368 203.115 89.368ZM225.478 74.04C227.59 74.04 229.265 74.6587 230.502 75.896C231.761 77.112 232.39 78.8933 232.39 81.24V91H230.118V81.464C230.118 79.7147 229.681 78.3813 228.806 77.464C227.932 76.5467 226.684 76.088 225.062 76.088C223.249 76.088 221.809 76.632 220.742 77.72C219.697 78.7867 219.174 80.2693 219.174 82.168V91H216.902V67.256H219.174V77.112C219.793 76.1307 220.646 75.3733 221.734 74.84C222.822 74.3067 224.07 74.04 225.478 74.04ZM238.559 74.168H240.831V91H238.559V74.168ZM239.711 70.488C239.241 70.488 238.847 70.328 238.527 70.008C238.207 69.688 238.047 69.304 238.047 68.856C238.047 68.4293 238.207 68.056 238.527 67.736C238.847 67.416 239.241 67.256 239.711 67.256C240.18 67.256 240.575 67.416 240.895 67.736C241.215 68.0347 241.375 68.3973 241.375 68.824C241.375 69.2933 241.215 69.688 240.895 70.008C240.575 70.328 240.18 70.488 239.711 70.488ZM262.512 67.256V91H260.336V87.672C259.654 88.8027 258.747 89.6667 257.616 90.264C256.507 90.8613 255.248 91.16 253.84 91.16C252.262 91.16 250.832 90.7973 249.552 90.072C248.272 89.3467 247.27 88.3333 246.544 87.032C245.819 85.7307 245.456 84.248 245.456 82.584C245.456 80.92 245.819 79.4373 246.544 78.136C247.27 76.8347 248.272 75.832 249.552 75.128C250.832 74.4027 252.262 74.04 253.84 74.04C255.206 74.04 256.432 74.328 257.52 74.904C258.63 75.4587 259.536 76.28 260.24 77.368V67.256H262.512ZM254.032 89.144C255.206 89.144 256.262 88.8773 257.2 88.344C258.16 87.7893 258.907 87.0107 259.44 86.008C259.995 85.0053 260.272 83.864 260.272 82.584C260.272 81.304 259.995 80.1627 259.44 79.16C258.907 78.1573 258.16 77.3893 257.2 76.856C256.262 76.3013 255.206 76.024 254.032 76.024C252.838 76.024 251.76 76.3013 250.8 76.856C249.862 77.3893 249.115 78.1573 248.56 79.16C248.027 80.1627 247.76 81.304 247.76 82.584C247.76 83.864 248.027 85.0053 248.56 86.008C249.115 87.0107 249.862 87.7893 250.8 88.344C251.76 88.8773 252.838 89.144 254.032 89.144ZM277.416 74.04C279.528 74.04 281.203 74.6587 282.44 75.896C283.699 77.112 284.328 78.8933 284.328 81.24V91H282.056V81.464C282.056 79.7147 281.619 78.3813 280.744 77.464C279.869 76.5467 278.621 76.088 277 76.088C275.187 76.088 273.747 76.632 272.68 77.72C271.635 78.7867 271.112 80.2693 271.112 82.168V91H268.84V67.256H271.112V77.112C271.731 76.1307 272.584 75.3733 273.672 74.84C274.76 74.3067 276.008 74.04 277.416 74.04ZM296.384 74.04C298.581 74.04 300.267 74.5947 301.44 75.704C302.613 76.792 303.2 78.4133 303.2 80.568V91H301.024V88.376C300.512 89.2507 299.755 89.9333 298.752 90.424C297.771 90.9147 296.597 91.16 295.232 91.16C293.355 91.16 291.861 90.712 290.752 89.816C289.643 88.92 289.088 87.736 289.088 86.264C289.088 84.8347 289.6 83.6827 290.624 82.808C291.669 81.9333 293.323 81.496 295.584 81.496H300.928V80.472C300.928 79.0213 300.523 77.9227 299.712 77.176C298.901 76.408 297.717 76.024 296.16 76.024C295.093 76.024 294.069 76.2053 293.088 76.568C292.107 76.9093 291.264 77.3893 290.56 78.008L289.536 76.312C290.389 75.5867 291.413 75.032 292.608 74.648C293.803 74.2427 295.061 74.04 296.384 74.04ZM295.584 89.368C296.864 89.368 297.963 89.08 298.88 88.504C299.797 87.9067 300.48 87.0533 300.928 85.944V83.192H295.648C292.768 83.192 291.328 84.1947 291.328 86.2C291.328 87.1813 291.701 87.96 292.448 88.536C293.195 89.0907 294.24 89.368 295.584 89.368ZM313.883 91.16C312.518 91.16 311.206 90.968 309.947 90.584C308.71 90.1787 307.739 89.6773 307.035 89.08L308.059 87.288C308.763 87.8427 309.648 88.3013 310.715 88.664C311.782 89.0053 312.891 89.176 314.043 89.176C315.579 89.176 316.71 88.9413 317.435 88.472C318.182 87.9813 318.555 87.2987 318.555 86.424C318.555 85.8053 318.352 85.3253 317.947 84.984C317.542 84.6213 317.03 84.3547 316.411 84.184C315.792 83.992 314.971 83.8107 313.947 83.64C312.582 83.384 311.483 83.128 310.651 82.872C309.819 82.5947 309.104 82.136 308.507 81.496C307.931 80.856 307.643 79.9707 307.643 78.84C307.643 77.432 308.23 76.28 309.403 75.384C310.576 74.488 312.208 74.04 314.299 74.04C315.387 74.04 316.475 74.1893 317.563 74.488C318.651 74.7653 319.547 75.1387 320.251 75.608L319.259 77.432C317.872 76.472 316.219 75.992 314.299 75.992C312.848 75.992 311.75 76.248 311.003 76.76C310.278 77.272 309.915 77.944 309.915 78.776C309.915 79.416 310.118 79.928 310.523 80.312C310.95 80.696 311.472 80.984 312.091 81.176C312.71 81.3467 313.563 81.528 314.651 81.72C315.995 81.976 317.072 82.232 317.883 82.488C318.694 82.744 319.387 83.1813 319.963 83.8C320.539 84.4187 320.827 85.272 320.827 86.36C320.827 87.832 320.208 89.0053 318.971 89.88C317.755 90.7333 316.059 91.16 313.883 91.16ZM330.915 74.04C333.113 74.04 334.798 74.5947 335.971 75.704C337.145 76.792 337.731 78.4133 337.731 80.568V91H335.555V88.376C335.043 89.2507 334.286 89.9333 333.283 90.424C332.302 90.9147 331.129 91.16 329.763 91.16C327.886 91.16 326.393 90.712 325.283 89.816C324.174 88.92 323.619 87.736 323.619 86.264C323.619 84.8347 324.131 83.6827 325.155 82.808C326.201 81.9333 327.854 81.496 330.115 81.496H335.459V80.472C335.459 79.0213 335.054 77.9227 334.243 77.176C333.433 76.408 332.249 76.024 330.691 76.024C329.625 76.024 328.601 76.2053 327.619 76.568C326.638 76.9093 325.795 77.3893 325.091 78.008L324.067 76.312C324.921 75.5867 325.945 75.032 327.139 74.648C328.334 74.2427 329.593 74.04 330.915 74.04ZM330.115 89.368C331.395 89.368 332.494 89.08 333.411 88.504C334.329 87.9067 335.011 87.0533 335.459 85.944V83.192H330.179C327.299 83.192 325.859 84.1947 325.859 86.2C325.859 87.1813 326.233 87.96 326.979 88.536C327.726 89.0907 328.771 89.368 330.115 89.368ZM352.478 74.04C354.59 74.04 356.265 74.6587 357.502 75.896C358.761 77.112 359.39 78.8933 359.39 81.24V91H357.118V81.464C357.118 79.7147 356.681 78.3813 355.806 77.464C354.932 76.5467 353.684 76.088 352.062 76.088C350.249 76.088 348.809 76.632 347.742 77.72C346.697 78.7867 346.174 80.2693 346.174 82.168V91H343.902V74.168H346.078V77.272C346.697 76.248 347.55 75.4587 348.638 74.904C349.748 74.328 351.028 74.04 352.478 74.04ZM380.526 64.056H382.606L372.046 94.2H369.966L380.526 64.056ZM397.644 78.744V80.856L383.724 86.424V84.44L395.5 79.8L383.724 75.16V73.144L397.644 78.744Z" fill="#64FFDA"/>
<path d="M68.421 108.186L73.7385 130.325L90.9461 130.325L77.0248 144.008L82.3423 166.147L68.421 152.464L54.4998 166.147L59.8172 144.008L45.896 130.325L63.1036 130.325L68.421 108.186Z" fill="#64FFDA"/>
<path d="M417.211 76.264C416.977 76.264 416.774 76.1787 416.603 76.008C416.443 75.8373 416.363 75.6293 416.363 75.384C416.363 75.1387 416.443 74.936 416.603 74.776C416.774 74.6053 416.977 74.52 417.211 74.52C417.446 74.52 417.649 74.6053 417.819 74.776C417.99 74.936 418.075 75.1387 418.075 75.384C418.075 75.6293 417.99 75.8373 417.819 76.008C417.649 76.1787 417.446 76.264 417.211 76.264ZM417.227 81.336C417.473 81.336 417.675 81.4213 417.835 81.592C417.995 81.752 418.075 81.9547 418.075 82.2C418.075 82.328 418.054 82.4667 418.011 82.616C417.979 82.7653 417.926 82.936 417.851 83.128L417.179 85.336H416.411L416.955 83.016C416.785 82.9627 416.646 82.8667 416.539 82.728C416.433 82.5787 416.379 82.4027 416.379 82.2C416.379 81.9547 416.459 81.752 416.619 81.592C416.779 81.4213 416.982 81.336 417.227 81.336Z" fill="#64FFDA"/>
</svg>
